<?xml version="1.0" encoding="utf-8"?>
<!-- Generator: Adobe Illustrator 22.0.1, SVG Export Plug-In . SVG Version: 6.00 Build 0)  -->
<svg version="1.1" xmlns="http://www.w3.org/2000/svg" xmlns:xlink="http://www.w3.org/1999/xlink" x="0px" y="0px"
	 viewBox="0 0 400 400" style="enable-background:new 0 0 400 400;" xml:space="preserve">
<style type="text/css">
	.st0{fill:#292826;}
	.st1{display:none;}
	.st2{display:inline;}
	.st3{fill:#F9D342;}
	.st4{fill:none;stroke:#F9D342;stroke-width:21;stroke-miterlimit:10;}
</style>
<g id="Layer_1">
</g>
<g id="Layer_2">
	<rect class="st0" width="400" height="400"/>
</g>
<g id="Layer_3" class="st1">
	<g class="st2">
		<path class="st3" d="M345,179c-0.3,18-4.2,36-11.4,52.4c-7.2,16.4-17.7,31.3-30.6,43.5c-12.9,12.2-28.1,21.8-44.5,28.2
			c-16.4,6.4-34,9.4-51.4,9.1c-34.9-0.5-69.2-15-93.7-39.5c-12.3-12.2-22.2-26.9-29-42.9c-6.9-16-10.5-33.4-10.7-50.8
			c-0.3-17.4,2.9-35,9.3-51.4c6.4-16.4,16.1-31.5,28.3-44.3c12.3-12.8,27.1-23.2,43.5-30.4c16.4-7.2,34.2-11.2,52.2-11.5
			c18-0.3,36.2,2.9,53,9.7c16.8,6.7,32.4,16.8,45.3,29.6c13,12.8,23.3,28.3,30,45.2C342,142.8,345.3,161,345,179z M325,179
			c-0.3-15.5-3.6-30.8-9.8-44.8c-6.1-14.1-14.8-26.9-25.6-37.9c-10.7-10.9-23.6-19.9-37.7-26c-14.1-6.1-29.5-9.5-45-9.8
			c-15.5-0.3-31.1,2.3-45.7,8c-14.6,5.6-28.1,14.2-39.6,25.1c-11.4,10.9-20.8,24.1-27.2,38.7c-6.4,14.6-9.8,30.5-10.2,46.6
			c-0.2,16.1,2.8,32.2,8.8,47.2c6.1,14.9,15.2,28.7,26.6,40.2c11.4,11.5,25.2,20.6,40.1,26.7c15,6,31.1,9.1,47.2,8.7
			c8-0.2,16.1-1.1,23.9-2.8c7.8-1.8,15.4-4.3,22.7-7.5c14.5-6.5,27.7-15.9,38.5-27.3c10.8-11.5,19.3-25,24.9-39.5
			C322.6,210,325.4,194.5,325,179z"/>
	</g>
</g>
<g id="Layer_4">
	<line class="st4" x1="141" y1="76.2" x2="284.5" y2="297.3"/>
	<line class="st4" x1="210.4" y1="191.2" x2="136" y2="298.1"/>
	<path class="st4" d="M339,349.4H65c-6.6,0-12-5.4-12-12V49.9c0-6.6,5.4-12,12-12H339c6.6,0,12,5.4,12,12v287.5
		C351,344,345.6,349.4,339,349.4z"/>
</g>
</svg>
